<?xml version="1.0" encoding="utf-8"?>
<!-- Generator: Adobe Illustrator 24.0.0, SVG Export Plug-In . SVG Version: 6.00 Build 0)  -->
<svg version="1.1" id="Слой_1" xmlns="http://www.w3.org/2000/svg" xmlns:xlink="http://www.w3.org/1999/xlink" x="0px" y="0px"
	 viewBox="343 344 313 313" style="enable-background:new 0 0 1000 1000;" xml:space="preserve" fill="#360099">
<g>
	<path d="M631.85,417.22c-22.23-35.37-56.9-59.96-97.63-69.25c-40.73-9.29-82.63-2.16-118,20.07
		c-35.37,22.23-59.96,56.9-69.25,97.63c-9.29,40.73-2.16,82.63,20.07,118c22.23,35.37,56.9,59.96,97.63,69.25
		c11.66,2.66,23.41,3.97,35.07,3.97c29.1,0,57.68-8.17,82.93-24.04c35.37-22.23,59.96-56.9,69.25-97.63
		C661.21,494.49,654.08,452.58,631.85,417.22L631.85,417.22z M634.75,450.71L634.75,450.71c0,8.31-2.11,16.48-6.09,23.71
		c-3.98-7.23-6.09-15.4-6.09-23.71c0-7.86,1.88-15.59,5.46-22.52c1.81,3.22,3.5,6.51,5.07,9.87
		C634.19,442.17,634.75,446.42,634.75,450.71L634.75,450.71z M632.97,563.27L632.97,563.27c-1.53,3.25-3.16,6.43-4.9,9.53
		c-3.6-6.95-5.51-14.72-5.51-22.61c0-5.51,0.93-10.96,2.71-16.11l6.76,0.02c1.78,5.15,2.71,10.59,2.71,16.09
		C634.75,554.62,634.14,559.03,632.97,563.27L632.97,563.27z M586.6,599.32L586.6,599.32c8.49-14,23.51-22.89,39.8-23.64
		c-1.82,3.07-3.76,6.06-5.78,8.97C611.71,593.67,599.52,599.05,586.6,599.32L586.6,599.32z M559.94,624.61L559.94,624.61l-1.49-1.87
		c0.33-0.11,0.65-0.23,0.98-0.34L559.94,624.61L559.94,624.61z M557.69,621.78L557.69,621.78l-6.08-7.64
		c1.57-1.5,3.23-2.88,4.97-4.15l2.59,11.28C558.68,621.45,558.19,621.62,557.69,621.78L557.69,621.78z M439.32,622.35L439.32,622.35
		c0.35,0.13,0.7,0.25,1.06,0.37l-1.61,2.03L439.32,622.35L439.32,622.35z M439.57,621.22L439.57,621.22l2.6-11.33
		c1.77,1.28,3.46,2.69,5.05,4.2l-6.09,7.67C440.61,621.59,440.09,621.41,439.57,621.22L439.57,621.22z M378.26,584.64L378.26,584.64
		c-1.29-1.85-2.55-3.73-3.76-5.65c-0.69-1.09-1.35-2.2-2.01-3.3c16.29,0.76,31.3,9.65,39.8,23.64
		C399.37,599.05,387.17,593.66,378.26,584.64L378.26,584.64z M364.15,550.18L364.15,550.18c0-5.75,1.01-11.43,2.95-16.78l6.28,0.02
		c1.94,5.35,2.95,11.02,2.95,16.77c0,7.89-1.9,15.65-5.5,22.61c-1.74-3.09-3.37-6.24-4.88-9.42
		C364.76,559.09,364.15,554.66,364.15,550.18L364.15,550.18z M365.93,437.59L365.93,437.59c1.52-3.23,3.16-6.39,4.89-9.48
		c3.6,6.95,5.5,14.72,5.5,22.61c0,8.31-2.11,16.48-6.09,23.71c-3.98-7.23-6.09-15.4-6.09-23.71
		C364.15,446.26,364.76,441.84,365.93,437.59L365.93,437.59z M384.5,410.91L384.5,410.91l7.41,9.3c-5.99,2.95-12.59,4.69-19.42,5
		c1.82-3.06,3.74-6.04,5.75-8.94C380.19,414.31,382.28,412.51,384.5,410.91L384.5,410.91z M620.34,415.96L620.34,415.96
		c2.1,3.01,4.09,6.09,5.96,9.25c-6.88-0.33-13.53-2.11-19.56-5.12l7.43-9.35C616.36,412.31,618.42,414.05,620.34,415.96
		L620.34,415.96z M499.7,648.03L499.7,648.03c-0.17,0-0.34,0-0.51,0c-3.82-7.11-5.83-15.12-5.83-23.25c0-8.31,2.11-16.48,6.09-23.71
		c3.98,7.23,6.09,15.4,6.09,23.71C505.54,632.91,503.52,640.91,499.7,648.03L499.7,648.03z M399.4,417.07L399.4,417.07l6.97,3.35
		c-0.19,1.8-0.3,3.6-0.3,5.42c0,1.99,0.12,3.97,0.36,5.93l-10.1-12.69C397.37,418.46,398.4,417.79,399.4,417.07L399.4,417.07z
		 M395.6,418.19L395.6,418.19l-3.79-4.76l6.4,3.08C397.36,417.09,396.49,417.65,395.6,418.19L395.6,418.19z M603.06,418.05
		L603.06,418.05c-0.85-0.52-1.68-1.06-2.5-1.63l6.11-2.92L603.06,418.05L603.06,418.05z M602.34,418.96L602.34,418.96l-9.82,12.36
		c0.2-1.81,0.3-3.63,0.3-5.47c0-1.87-0.11-3.73-0.32-5.57l6.87-3.28C600.34,417.68,601.33,418.34,602.34,418.96L602.34,418.96z
		 M627.12,574.45L627.12,574.45c-16.57-0.52-31.89-9.47-40.51-23.68c16.59,0.35,32.01,9.14,40.77,23.23
		C627.29,574.15,627.2,574.3,627.12,574.45L627.12,574.45z M547.71,609.25L547.71,609.25l-11.07-13.9
		c0.63-6.72,2.62-13.24,5.87-19.14c3.98,7.23,6.09,15.4,6.09,23.71C548.61,603.06,548.3,606.19,547.71,609.25L547.71,609.25z
		 M450.29,599.91L450.29,599.91c0-8.31,2.11-16.48,6.09-23.71c3.23,5.86,5.22,12.33,5.86,19l-11.08,13.93
		C450.59,606.12,450.29,603.02,450.29,599.91L450.29,599.91z M371.52,574.01L371.52,574.01c8.76-14.1,24.18-22.89,40.77-23.24
		c-8.62,14.21-23.95,23.15-40.52,23.68C371.69,574.3,371.6,574.16,371.52,574.01L371.52,574.01z M371.77,426.45L371.77,426.45
		c16.57,0.52,31.9,9.47,40.52,23.68c-16.6-0.35-32.01-9.14-40.77-23.24C371.6,426.74,371.68,426.59,371.77,426.45L371.77,426.45z
		 M407.22,425.85L407.22,425.85c0-1.64,0.08-3.27,0.24-4.89l11.92,5.74c-0.1,5.88-1.25,11.69-3.38,17.12l-8.18-10.27
		C407.42,431,407.22,428.43,407.22,425.85L407.22,425.85z M591.68,425.85L591.68,425.85c0,2.42-0.18,4.82-0.54,7.2l-8.35,10.5
		c-2.09-5.42-3.21-11.2-3.28-17.06l11.91-5.69C591.59,422.47,591.68,424.16,591.68,425.85L591.68,425.85z M621.16,525.31
		L621.16,525.31c-5.09,0.77-10.01,2.32-14.58,4.56l-13.97-0.04c0.14-1.5,0.21-3.01,0.21-4.52c0-5.65-0.96-11.24-2.79-16.53
		l1.49,0.72C599.28,517.96,609.77,523.58,621.16,525.31L621.16,525.31z M594.54,510.95L594.54,510.95l27.8,13.38
		C611.86,522.96,602.1,518.22,594.54,510.95L594.54,510.95z M531.52,588.91L531.52,588.91c2.64-2.18,5.06-4.63,7.22-7.33
		c-1.56,4-2.61,8.2-3.11,12.49L531.52,588.91L531.52,588.91z M463.25,593.94L463.25,593.94c-0.51-4.24-1.55-8.39-3.09-12.36
		c2.14,2.67,4.54,5.1,7.14,7.26L463.25,593.94L463.25,593.94z M408.51,508.21L408.51,508.21l0.67-0.32
		c-2.04,5.55-3.11,11.45-3.11,17.42c0,1.35,0.06,2.7,0.17,4.04l-15.11-0.04c-4.23-1.94-8.74-3.29-13.39-4
		C389.69,523.5,400.65,517.39,408.51,508.21L408.51,508.21z M374.29,524.56L374.29,524.56l31.49-15.05
		C397.53,518.13,386.32,523.56,374.29,524.56L374.29,524.56z M591.47,529.83L591.47,529.83l-11.76-0.03
		c-0.14-1.49-0.21-2.99-0.21-4.49c0-6.78,1.41-13.47,4.09-19.63l4.98,2.39c2.05,5.48,3.11,11.33,3.11,17.24
		C591.68,526.83,591.6,528.33,591.47,529.83L591.47,529.83z M407.22,525.31L407.22,525.31c0-6.24,1.19-12.4,3.47-18.14l4.37-2.09
		c2.85,6.32,4.35,13.23,4.35,20.23c0,1.36-0.06,2.72-0.18,4.07l-11.83-0.03C407.28,528.01,407.22,526.66,407.22,525.31
		L407.22,525.31z M499.36,555.18L499.36,555.18l3.8,4.77c1.56,4.85,2.37,9.95,2.37,15.09c0,8.31-2.11,16.48-6.09,23.7
		c-3.98-7.23-6.09-15.4-6.09-23.7c0-5.27,0.85-10.48,2.48-15.44L499.36,555.18L499.36,555.18z M546.09,529.71L546.09,529.71
		c-0.91-1.22-1.77-2.49-2.56-3.81c6.28,0.13,12.39,1.47,18.04,3.85L546.09,529.71L546.09,529.71z M569.4,533.92L569.4,533.92
		c6.08,3.97,11.3,9.29,15.17,15.67c-13.4-0.28-26.04-6.07-35.02-15.72L569.4,533.92L569.4,533.92z M548.31,555.51L548.31,555.51
		l-4.98-21.65l2.49,0.01c1.83,5.22,2.79,10.74,2.79,16.32C548.61,551.96,548.5,553.74,548.31,555.51L548.31,555.51z M450.29,550.18
		L450.29,550.18c0-5.67,0.98-11.27,2.87-16.56l2.3,0.01l-4.93,21.43C450.37,553.44,450.29,551.81,450.29,550.18L450.29,550.18z
		 M438.12,529.43L438.12,529.43c5.4-2.17,11.2-3.39,17.16-3.53l0.02,0.1c-0.73,1.19-1.5,2.35-2.32,3.47L438.12,529.43L438.12,529.43
		z M449.58,533.61L449.58,533.61c-8.99,9.8-21.73,15.7-35.26,15.98c3.99-6.57,9.41-12.02,15.74-16.03L449.58,533.61L449.58,533.61z
		 M416.75,451.41L416.75,451.41l11.99,15.06c-5.76-3.91-10.71-9.05-14.42-15.16C415.13,451.32,415.94,451.35,416.75,451.41
		L416.75,451.41z M422.68,452.2L422.68,452.2c13.47,2.64,25.44,10.86,32.68,22.79c-6.04-0.13-11.93-1.37-17.39-3.59L422.68,452.2
		L422.68,452.2z M451.08,441.94L451.08,441.94l11.27,5.42c0.08,1.11,0.12,2.23,0.12,3.36c0,8.31-2.11,16.48-6.09,23.7
		c-3.98-7.23-6.09-15.4-6.09-23.7C450.29,447.76,450.56,444.82,451.08,441.94L451.08,441.94z M548.61,450.71L548.61,450.71
		c0,8.31-2.11,16.48-6.09,23.7c-3.98-7.23-6.09-15.4-6.09-23.7c0-1.24,0.05-2.48,0.15-3.71l11.19-5.35
		C548.32,444.63,548.61,447.66,548.61,450.71L548.61,450.71z M584.57,501.04L584.57,501.04c-0.08,0.13-0.16,0.27-0.24,0.4
		l-0.77-0.37C583.9,501.05,584.24,501.04,584.57,501.04L584.57,501.04z M428.57,498.63L428.57,498.63c4.39-1.4,8.56-3.4,12.4-5.93
		l6.07-2.9l2.12,9.31c-0.01,0.45-0.02,0.89-0.02,1.34c0,6.3,1.19,12.52,3.46,18.33c-7.3-9.1-17.57-15.4-28.93-17.81L428.57,498.63
		L428.57,498.63z M524.47,452.79L524.47,452.79l0.21-0.1l10.7-5.11c-0.06,1.04-0.1,2.09-0.1,3.14c0,6.3,1.19,12.52,3.46,18.33
		c-2.11-2.63-4.46-5.02-7.02-7.16L524.47,452.79L524.47,452.79z M499.32,456.96L499.32,456.96l5.3,9.18
		c0.57,2.9,0.87,5.86,0.91,8.83h-12.16c0.04-3.21,0.39-6.4,1.05-9.52L499.32,456.96L499.32,456.96z M516.91,479.12L516.91,479.12
		h5.76c-1.53,0.66-3.03,1.39-4.49,2.2L516.91,479.12L516.91,479.12z M499.32,547.01L499.32,547.01l-3.4-6
		c-1.45-4.31-2.29-8.83-2.51-13.4h12.06c-0.2,4.21-0.93,8.37-2.17,12.37L499.32,547.01L499.32,547.01z M481.22,523.45L481.22,523.45
		h-9.45c2.64-0.85,5.19-1.92,7.64-3.18L481.22,523.45L481.22,523.45z M460.9,479.12L460.9,479.12h12.23
		c2.35,0.86,4.63,1.89,6.82,3.09l-6.05,10.47c-3.53-2.15-6.79-4.74-9.7-7.72L460.9,479.12L460.9,479.12z M537.74,479.12
		L537.74,479.12l-3.65,6.45c-2.81,2.78-5.93,5.2-9.29,7.22l-6.05-10.48c2.25-1.24,4.59-2.31,7.02-3.19H537.74L537.74,479.12z
		 M521.16,494.79L521.16,494.79c-6.37,3.14-13.42,4.91-20.7,5.07c3.78-6.23,8.84-11.45,14.74-15.39L521.16,494.79L521.16,494.79z
		 M525.06,501.54L525.06,501.54l-2.32,4.09c-4.91-2.57-10.25-4.34-15.8-5.18c5.18-0.79,10.16-2.37,14.79-4.66L525.06,501.54
		L525.06,501.54z M473.58,501.54L473.58,501.54l3.38-5.85c4.69,2.35,9.74,3.97,14.99,4.76c-5.63,0.85-11.03,2.65-16,5.28
		L473.58,501.54L473.58,501.54z M498.43,501.04L498.43,501.04c-4.04,6.66-9.55,12.16-15.97,16.18l-5.94-10.49
		C483.2,503.2,490.69,501.2,498.43,501.04L498.43,501.04z M522.18,506.62L522.18,506.62l-5.93,10.48
		c-6.34-4.01-11.79-9.47-15.79-16.06C508.13,501.2,515.55,503.16,522.18,506.62L522.18,506.62z M477.53,494.69L477.53,494.69
		l5.97-10.34c5.98,3.95,11.11,9.22,14.93,15.51C491.08,499.7,483.95,497.89,477.53,494.69L477.53,494.69z M473.33,493.67
		L473.33,493.67l-2.12,3.67l-5.07-8.96C468.38,490.36,470.79,492.13,473.33,493.67L473.33,493.67z M472.37,507.82L472.37,507.82
		c-1.41,0.9-2.78,1.87-4.1,2.91l2.9-5.02L472.37,507.82L472.37,507.82z M460.93,523.45L460.93,523.45l5.66-9.81
		c1.98-1.78,4.11-3.39,6.34-4.82l5.92,10.45c-3.58,1.84-7.38,3.26-11.33,4.18H460.93L460.93,523.45z M495.67,506.98L495.67,506.98
		c-2.05,5.24-3.21,10.81-3.42,16.47h-6.26l-2.96-5.23C487.81,515.23,492.09,511.44,495.67,506.98L495.67,506.98z M499.45,501.61
		L499.45,501.61c3.68,6.68,5.76,14.18,6.05,21.84h-12.1C493.68,515.79,495.76,508.29,499.45,501.61L499.45,501.61z M492.27,527.6
		L492.27,527.6c0.14,3.1,0.56,6.17,1.26,9.18l-5.19-9.18H492.27L492.27,527.6z M506.62,527.6L506.62,527.6h3.68l-4.78,8.45
		C506.12,533.28,506.49,530.45,506.62,527.6L506.62,527.6z M506.64,523.45L506.64,523.45c-0.21-5.66-1.37-11.23-3.42-16.46
		c3.53,4.4,7.75,8.15,12.45,11.11l-3.03,5.35H506.64L506.64,523.45z M519.28,520.16L519.28,520.16c2.51,1.31,5.14,2.41,7.84,3.28
		h-9.7L519.28,520.16L519.28,520.16z M519.84,519.17L519.84,519.17l5.93-10.47c2.1,1.33,4.11,2.82,6,4.47l5.94,10.28h-6.33
		C527.35,522.51,523.48,521.06,519.84,519.17L519.84,519.17z M526.34,507.7L526.34,507.7l1.13-1.99l2.69,4.66
		C528.92,509.41,527.65,508.53,526.34,507.7L526.34,507.7z M527.43,497.34L527.43,497.34l-2.05-3.56c2.42-1.46,4.72-3.12,6.88-4.96
		L527.43,497.34L527.43,497.34z M503.23,493.91L503.23,493.91c1.84-4.72,2.97-9.71,3.33-14.79h5.56l2.51,4.35
		C510.35,486.33,506.49,489.84,503.23,493.91L503.23,493.91z M499.45,499.29L499.45,499.29c-3.42-6.2-5.45-13.09-5.96-20.16h11.92
		C504.89,486.2,502.86,493.09,499.45,499.29L499.45,499.29z M506.67,474.97L506.67,474.97c-0.02-2.02-0.16-4.03-0.43-6.02l3.48,6.02
		H506.67L506.67,474.97z M492.22,474.97L492.22,474.97h-3.3l3.82-6.61C492.42,470.54,492.25,472.75,492.22,474.97L492.22,474.97z
		 M492.34,479.12L492.34,479.12c0.36,5.08,1.49,10.07,3.33,14.79c-3.31-4.13-7.23-7.68-11.59-10.56l2.44-4.23H492.34L492.34,479.12z
		 M480.52,481.22L480.52,481.22c-1.4-0.77-2.83-1.46-4.29-2.09h5.5L480.52,481.22L480.52,481.22z M468.8,501.52L468.8,501.52
		l-6.9,11.95c1.13-4.22,1.71-8.6,1.71-13.02c0-3.3-0.33-6.59-0.96-9.8L468.8,501.52L468.8,501.52z M483.57,527.6L483.57,527.6
		l4.98,8.81c-4.61-3.83-9.87-6.81-15.53-8.81H483.57L483.57,527.6z M515.07,527.6L515.07,527.6h10.8
		c-5.85,2.06-11.29,5.19-16.01,9.22L515.07,527.6L515.07,527.6z M529.84,501.52L529.84,501.52l6.56-11.59
		c-0.73,3.44-1.12,6.97-1.12,10.52c0,4.72,0.67,9.39,1.95,13.88L529.84,501.52L529.84,501.52z M514.51,474.97L514.51,474.97
		l-8.22-14.25c6.89,7.13,15.77,12.11,25.46,14.25H514.51L514.51,474.97z M484.13,474.97L484.13,474.97h-16.98
		c9.4-2.07,18.04-6.81,24.84-13.61L484.13,474.97L484.13,474.97z M457.11,480.85L457.11,480.85l3.49,6.16
		c1.23,4.35,1.87,8.87,1.87,13.43c0,6.13-1.15,12.19-3.35,17.85l-0.94,1.64l-6.79-29.77c0.22-1.04,0.48-2.07,0.76-3.09
		L457.11,480.85L457.11,480.85z M453.41,517.7L453.41,517.7c-1.53-4.09-2.51-8.38-2.91-12.74L453.41,517.7L453.41,517.7z
		 M460.51,530.17L460.51,530.17l0.16-0.68l-0.31,0l-0.43-1.89h9.27c7.91,2.15,15.17,6.25,21.11,11.89l4.1,7.24l-33.82-16.29
		L460.51,530.17L460.51,530.17z M508.04,540.03L508.04,540.03c6.03-5.92,13.51-10.21,21.66-12.43h9.02l-0.48,2.09h-0.12l0.06,0.26
		l-0.11,0.49l-33.83,16.29L508.04,540.03L508.04,540.03z M547.39,489.59L547.39,489.59l-6.92,30.34l-0.08-0.13
		c-2.6-6.08-3.97-12.67-3.97-19.35c0-4.88,0.73-9.72,2.13-14.35l2.97-5.25l5.36,6.72C547.08,488.24,547.24,488.91,547.39,489.59
		L547.39,489.59z M548.52,503.3L548.52,503.3c-0.32,5.49-1.55,10.89-3.64,15.94L548.52,503.3L548.52,503.3z M522.6,457.11
		L522.6,457.11l13.98,17.53c-13.29-1.63-25.42-8.66-33.46-19.39l-0.21-0.36h14.92C519.46,455.54,521.05,456.28,522.6,457.11
		L522.6,457.11z M520.7,454.88L520.7,454.88h0.13l0.08,0.1C520.83,454.95,520.77,454.91,520.7,454.88L520.7,454.88z M495.73,454.88
		L495.73,454.88l-0.95,1.65c-8.08,10.08-19.88,16.64-32.74,18.14l13.8-17.31c1.69-0.93,3.43-1.75,5.22-2.48H495.73L495.73,454.88z
		 M477.58,455.17L477.58,455.17l0.23-0.29h0.38C477.99,454.98,477.79,455.07,477.58,455.17L477.58,455.17z M466.4,462.54
		L466.4,462.54c-2.26,1.96-4.35,4.14-6.24,6.5c2.27-5.81,3.45-12.03,3.45-18.33c0-0.93-0.03-1.86-0.08-2.79l10.47,5.04l0.02,0.01
		L466.4,462.54L466.4,462.54z M487.95,548.23L487.95,548.23c-6.79-1.64-13.15-4.72-18.64-8.98L487.95,548.23L487.95,548.23z
		 M529.98,538.94L529.98,538.94c-5.72,4.52-12.39,7.76-19.54,9.41L529.98,538.94L529.98,538.94z M549.69,498.15L549.69,498.15
		l1.8-7.91l22.74,10.94c-10.97,2.56-20.85,8.75-27.94,17.59c2.27-5.81,3.46-12.03,3.46-18.33
		C549.75,499.68,549.73,498.92,549.69,498.15L549.69,498.15z M537.19,442.11L537.19,442.11c0.94-5.29,2.73-10.4,5.33-15.1
		c1.84,3.33,3.27,6.86,4.29,10.51L537.19,442.11L537.19,442.11z M535.92,442.72L535.92,442.72l-12.19,5.83L523,445.4
		c6.03-3.2,11.4-7.62,15.73-13.02C537.43,435.71,536.49,439.18,535.92,442.72L535.92,442.72z M519.89,450.38L519.89,450.38
		l0.08,0.35h-12.91c-0.04-0.01-0.08-0.01-0.12-0.02c4.23-0.64,8.34-1.82,12.22-3.48L519.89,450.38L519.89,450.38z M491.83,450.73
		L491.83,450.73h-13.05l0.02-0.07l0.8-3.49c3.93,1.69,8.08,2.89,12.36,3.54C491.91,450.72,491.87,450.73,491.83,450.73
		L491.83,450.73z M474.96,448.82L474.96,448.82l-11.93-5.74c-0.56-3.66-1.52-7.25-2.87-10.69c4.3,5.36,9.62,9.75,15.6,12.95
		L474.96,448.82L474.96,448.82z M461.77,442.47L461.77,442.47l-9.75-4.69c1.02-3.75,2.48-7.36,4.36-10.77
		C459.03,431.82,460.85,437.06,461.77,442.47L461.77,442.47z M448.88,475.58L448.88,475.58c-2.19,0.33-4.34,0.81-6.45,1.42
		l-3.05-3.83C442.44,474.27,445.62,475.09,448.88,475.58L448.88,475.58z M455.36,476.17L455.36,476.17c-0.2,0.32-0.39,0.64-0.6,0.96
		l-6.12,7.68l-0.22-0.27l-5.23-6.57C447.12,476.87,451.21,476.26,455.36,476.17L455.36,476.17z M444.58,486.37L444.58,486.37
		l-28.02,13.39c-0.74,0.05-1.49,0.08-2.24,0.09c5.77-9.5,14.54-16.66,24.67-20.51L444.58,486.37L444.58,486.37z M421.93,501.8
		L421.93,501.8c13.43,2.41,25.44,10.36,32.87,22.03l0.2,0.9c-15.29-0.43-29.55-8.04-38.47-20.34L421.93,501.8L421.93,501.8z
		 M455.7,527.75L455.7,527.75l0.4,1.73l-1.24,0C455.12,528.89,455.41,528.32,455.7,527.75L455.7,527.75z M459.51,534.53
		L459.51,534.53l0.48,0.23c1.63,4.95,2.48,10.15,2.48,15.42c0,8.31-2.11,16.48-6.09,23.71c-1.58-2.87-2.87-5.89-3.85-9.02
		L459.51,534.53L459.51,534.53z M463.61,550.18L463.61,550.18c0-5.01-0.75-9.98-2.2-14.73l3.79,1.82
		c7.38,6.84,16.72,11.38,26.75,12.91c-12.49,1.9-23.88,8.47-31.79,18.33C462.43,562.7,463.61,556.48,463.61,550.18L463.61,550.18z
		 M533.96,537.02L533.96,537.02l3.57-1.72c-1.48,4.79-2.25,9.81-2.25,14.87c0,6.3,1.19,12.52,3.45,18.33
		c-7.91-9.86-19.3-16.43-31.79-18.33C517.1,548.64,526.53,544.01,533.96,537.02L533.96,537.02z M536.43,550.18L536.43,550.18
		c0-5.31,0.86-10.57,2.52-15.56l0.27-0.13l7.05,30.66c-0.96,3.02-2.22,5.95-3.76,8.73C538.53,566.66,536.43,558.49,536.43,550.18
		L536.43,550.18z M542.49,529.7L542.49,529.7l0.52-2.3c0.4,0.76,0.78,1.53,1.13,2.3L542.49,529.7L542.49,529.7z M543.69,524.46
		L543.69,524.46c7.2-11.7,18.98-19.79,32.22-22.47l6.06,2.91c-8.99,12.06-23.17,19.47-38.34,19.82L543.69,524.46L543.69,524.46z
		 M580.54,499.61L580.54,499.61l-26.77-12.88l5.93-7.46c10.22,3.83,19.07,11.01,24.88,20.58
		C583.22,499.83,581.87,499.75,580.54,499.61L580.54,499.61z M550.09,484.7L550.09,484.7c-0.43-0.45-0.85-0.9-1.26-1.36l-3.31-4.15
		c-0.7-0.98-1.35-1.98-1.98-3.01c4.08,0.09,8.09,0.68,11.95,1.74L550.09,484.7L550.09,484.7z M550.01,475.58L550.01,475.58
		c3.12-0.47,6.18-1.24,9.13-2.28l-2.89,3.64C554.21,476.36,552.13,475.9,550.01,475.58L550.01,475.58z M543.53,474.99L543.53,474.99
		c7.18-11.83,19.01-20.02,32.33-22.72l-15.34,19.29C555.17,473.68,549.43,474.87,543.53,474.99L543.53,474.99z M581.82,451.44
		L581.82,451.44c0.91-0.07,1.83-0.11,2.75-0.13c-3.84,6.32-9,11.61-15.01,15.57L581.82,451.44L581.82,451.44z M582.92,450.06
		L582.92,450.06l0.9-1.14c0.26,0.4,0.51,0.79,0.75,1.2C584.02,450.11,583.47,450.09,582.92,450.06L582.92,450.06z M576.95,450.9
		L576.95,450.9c-12.04,2.11-22.99,8.58-30.66,18.15c2.27-5.81,3.46-12.03,3.46-18.33c0-3.22-0.31-6.43-0.92-9.57l4.08-1.95
		c6.89,5.88,15.29,9.85,24.3,11.38L576.95,450.9L576.95,450.9z M547.85,437.02L547.85,437.02c-0.44-1.57-0.96-3.12-1.55-4.63
		c1.06,1.32,2.18,2.58,3.35,3.77L547.85,437.02L547.85,437.02z M522.74,444.24L522.74,444.24l-2.82-12.29
		c6.59-3.42,13.97-5.36,21.59-5.52C536.89,434.04,530.36,440.14,522.74,444.24L522.74,444.24z M518.91,446.1L518.91,446.1
		c-5.76,2.49-12.01,3.89-18.44,4.03c3.98-6.56,9.39-12,15.69-16L518.91,446.1L518.91,446.1z M479.85,446.04L479.85,446.04l2.76-12
		c6.36,4.01,11.81,9.48,15.82,16.08C491.95,449.99,485.65,448.56,479.85,446.04L479.85,446.04z M476.02,444.17L476.02,444.17
		c-7.56-4.1-14.05-10.17-18.63-17.73c7.57,0.16,14.9,2.08,21.46,5.45L476.02,444.17L476.02,444.17z M450.97,437.28L450.97,437.28
		l-1.92-0.92c1.25-1.26,2.43-2.58,3.54-3.97C451.97,433.99,451.43,435.62,450.97,437.28L450.97,437.28z M450.01,441.42
		L450.01,441.42c-0.57,3.05-0.87,6.16-0.87,9.29c0,6.3,1.19,12.52,3.46,18.33c-7.74-9.65-18.82-16.16-31-18.21l-0.17-0.21
		c9.01-1.48,17.42-5.41,24.34-11.24L450.01,441.42L450.01,441.42z M414.32,450.12L414.32,450.12c0.2-0.33,0.41-0.66,0.62-0.99
		l0.75,0.94C415.23,450.1,414.78,450.11,414.32,450.12L414.32,450.12z M430.91,469.2L430.91,469.2l7.34,9.22
		c-8.23,3.19-15.57,8.52-21.16,15.5c2.27-5.81,3.46-12.03,3.46-18.33c0-6.3-1.19-12.52-3.46-18.33
		C420.96,462.07,425.65,466.11,430.91,469.2L430.91,469.2z M448.88,525.31L448.88,525.31c-4.75,0.72-9.34,2.12-13.64,4.11
		l-14.87-0.04c0.11-1.35,0.17-2.71,0.17-4.07c0-6.3-1.19-12.52-3.46-18.33C425,516.85,436.39,523.42,448.88,525.31L448.88,525.31z
		 M427.98,533.56L427.98,533.56c-4.08,2.79-7.76,6.18-10.89,10.09c1.27-3.26,2.21-6.65,2.78-10.11L427.98,533.56L427.98,533.56z
		 M451.12,533.62L451.12,533.62l0.82,0c-1.84,5.3-2.8,10.9-2.8,16.56c0,2.72,0.22,5.42,0.65,8.08l-1.31,5.71
		c-7.52-7.34-17.22-12.2-27.68-13.79C432.53,548.4,443.3,542.5,451.12,533.62L451.12,533.62z M452.04,567.01L452.04,567.01
		c0.18,0.5,0.36,1,0.56,1.5c-0.23-0.29-0.47-0.58-0.7-0.86L452.04,567.01L452.04,567.01z M493.87,551.08L493.87,551.08l2.5,1.2
		l-8.64,10.87c-8.45,6.98-19.12,11.07-30.33,11.3C465.3,561.41,478.88,552.81,493.87,551.08L493.87,551.08z M502.34,552.25
		L502.34,552.25l2.48-1.2c15.07,1.67,28.73,10.3,36.68,23.4c-11.42-0.24-22.29-4.48-30.81-11.7L502.34,552.25L502.34,552.25z
		 M546.76,567.28L546.76,567.28l0.12,0.52c-0.2,0.24-0.39,0.48-0.58,0.72C546.46,568.1,546.61,567.69,546.76,567.28L546.76,567.28z
		 M549.03,558.65L549.03,558.65c0.47-2.79,0.72-5.62,0.72-8.47c0-5.57-0.93-11.09-2.71-16.31l0.96,0
		c7.8,8.74,18.47,14.55,30.09,16.31c-10.52,1.6-20.27,6.51-27.81,13.91L549.03,558.65L549.03,558.65z M571.45,533.93L571.45,533.93
		l7.65,0.02c0.58,3.32,1.48,6.57,2.71,9.69C578.81,539.91,575.32,536.65,571.45,533.93L571.45,533.93z M564.36,529.76L564.36,529.76
		c-4.5-2.18-9.34-3.69-14.35-4.45c12.49-1.9,23.88-8.47,31.79-18.33c-2.27,5.81-3.46,12.03-3.46,18.33c0,1.5,0.07,3,0.21,4.48
		L564.36,529.76L564.36,529.76z M560.45,478.33L560.45,478.33l7.02-8.84c5.46-3.12,10.34-7.27,14.34-12.25
		c-2.27,5.81-3.46,12.03-3.46,18.33c0,6.3,1.19,12.52,3.46,18.33C576.17,486.88,568.76,481.52,560.45,478.33L560.45,478.33z
		 M578.03,449.54L578.03,449.54c-8.87-1.39-17.16-5.19-23.98-10.89l12.46-5.95c5.69,3.18,10.75,7.48,14.82,12.7L578.03,449.54
		L578.03,449.54z M550.74,435.64L550.74,435.64c-2.73-2.74-5.16-5.82-7.21-9.2c6.35,0.13,12.53,1.5,18.23,3.93L550.74,435.64
		L550.74,435.64z M519.65,430.81L519.65,430.81l-2.61-11.35c5.5,3.23,11.6,5.42,17.98,6.39
		C529.63,426.67,524.44,428.36,519.65,430.81L519.65,430.81z M515.88,432.93L515.88,432.93c-4.79,2.99-9.07,6.78-12.65,11.24
		c2.27-5.81,3.46-12.03,3.46-18.33c0-6.3-1.19-12.52-3.45-18.33c2.58,3.22,5.54,6.1,8.78,8.57L515.88,432.93L515.88,432.93z
		 M499.45,449.55L499.45,449.55c-3.98-7.23-6.09-15.4-6.09-23.71s2.11-16.48,6.09-23.71c3.98,7.23,6.09,15.4,6.09,23.71
		C505.54,434.15,503.43,442.33,499.45,449.55L499.45,449.55z M492.21,425.85L492.21,425.85c0,6.3,1.19,12.52,3.46,18.33
		c-3.61-4.5-7.94-8.32-12.78-11.32l3.83-16.64c3.31-2.5,6.33-5.42,8.95-8.7C493.4,413.33,492.21,419.55,492.21,425.85L492.21,425.85
		z M479.11,430.74L479.11,430.74c-4.76-2.41-9.9-4.08-15.24-4.89c6.32-0.96,12.36-3.11,17.81-6.29L479.11,430.74L479.11,430.74z
		 M447.96,435.83L447.96,435.83l-11.1-5.34c5.78-2.51,12.05-3.92,18.5-4.05C453.26,429.89,450.77,433.04,447.96,435.83
		L447.96,435.83z M444.63,438.84L444.63,438.84c-6.85,5.65-15.16,9.41-24.03,10.75l-3.18-3.99c4.04-5.23,9.07-9.55,14.73-12.76
		L444.63,438.84L444.63,438.84z M419.4,475.58L419.4,475.58c0,8.31-2.11,16.48-6.09,23.7c-3.98-7.23-6.09-15.4-6.09-23.7
		s2.11-16.48,6.09-23.7C417.29,459.1,419.4,467.27,419.4,475.58L419.4,475.58z M418.7,533.53L418.7,533.53
		c-0.92,5.42-2.74,10.67-5.4,15.49c-2.66-4.83-4.49-10.08-5.4-15.52L418.7,533.53L418.7,533.53z M448.18,565.28L448.18,565.28
		l-1.87,8.13c-13.18-2.78-24.87-10.92-31.99-22.65C427.16,551.04,439.29,556.36,448.18,565.28L448.18,565.28z M451.57,569.06
		L451.57,569.06c1.38,1.7,2.64,3.5,3.79,5.4c-1.67-0.03-3.32-0.15-4.95-0.36L451.57,569.06L451.57,569.06z M484.88,566.73
		L484.88,566.73l-9.23,11.61c-3.76-1.56-7.71-2.67-11.78-3.29C471.46,573.89,478.64,571.02,484.88,566.73L484.88,566.73z
		 M493.92,562.03L493.92,562.03c-1.13,4.23-1.71,8.61-1.71,13.02c0,6.3,1.19,12.52,3.46,18.33c-4.43-5.52-9.95-10.01-16.15-13.23
		L493.92,562.03L493.92,562.03z M506.68,575.05L506.68,575.05c0-4.31-0.56-8.59-1.64-12.73l14.23,17.88
		c-6.16,3.21-11.64,7.68-16.05,13.18C505.5,587.57,506.68,581.34,506.68,575.05L506.68,575.05z M513.68,566.5L513.68,566.5
		c6.32,4.42,13.62,7.38,21.35,8.55c-4.11,0.62-8.1,1.75-11.88,3.33L513.68,566.5L513.68,566.5z M543.53,574.46L543.53,574.46
		c1.12-1.84,2.34-3.59,3.67-5.25l1.13,4.91C546.75,574.31,545.14,574.42,543.53,574.46L543.53,574.46z M550.59,565.41L550.59,565.41
		c8.9-9,21.09-14.37,33.98-14.64c-7.14,11.77-18.89,19.93-32.14,22.68L550.59,565.41L550.59,565.41z M580.27,533.95L580.27,533.95
		l10.64,0.03c-0.94,5.26-2.73,10.35-5.32,15.04C583,544.32,581.2,539.23,580.27,533.95L580.27,533.95z M585.4,501.95L585.4,501.95
		c0.06-0.11,0.13-0.23,0.19-0.34c0.11,0.2,0.22,0.39,0.32,0.59L585.4,501.95L585.4,501.95z M579.5,475.58L579.5,475.58
		c0-8.31,2.11-16.48,6.09-23.7c3.98,7.23,6.09,15.4,6.09,23.7s-2.11,16.48-6.09,23.7C581.6,492.06,579.5,483.89,579.5,475.58
		L579.5,475.58z M567.77,432.1L567.77,432.1l10.6-5.07c0.14,5.89,1.31,11.7,3.44,17.15C577.89,439.29,573.11,435.2,567.77,432.1
		L567.77,432.1z M563.13,429.72L563.13,429.72c-4.15-1.87-8.56-3.18-13.11-3.87c12.49-1.9,23.88-8.47,31.79-18.33
		c-1.85,4.74-2.98,9.76-3.33,14.87L563.13,429.72L563.13,429.72z M516.68,417.91L516.68,417.91l-3.29-14.32
		c11.58,3.45,21.7,11.1,28.11,21.66C532.61,425.07,524.06,422.46,516.68,417.91L516.68,417.91z M511.6,414.3L511.6,414.3
		c-4.37-3.53-8.15-7.81-11.14-12.73c2.85,0.06,5.67,0.37,8.42,0.91L511.6,414.3L511.6,414.3z M487.12,414.44L487.12,414.44
		l2.74-11.94c2.8-0.56,5.67-0.88,8.57-0.94C495.41,406.56,491.56,410.89,487.12,414.44L487.12,414.44z M482.04,418.01L482.04,418.01
		c-7.33,4.49-15.82,7.06-24.65,7.25c6.38-10.52,16.44-18.15,27.95-21.62L482.04,418.01L482.04,418.01z M435.5,429.84L435.5,429.84
		l-15.06-7.25c-0.34-5.18-1.47-10.27-3.35-15.07c7.91,9.86,19.3,16.43,31.79,18.33C444.23,426.55,439.73,427.9,435.5,429.84
		L435.5,429.84z M430.91,432.23L430.91,432.23c-5.25,3.09-9.95,7.12-13.82,11.94c2.1-5.38,3.27-11.12,3.43-16.94L430.91,432.23
		L430.91,432.23z M406.07,475.58L406.07,475.58c0,6.3,1.19,12.52,3.46,18.33c-7.91-9.86-19.31-16.43-31.79-18.33
		c12.49-1.9,23.88-8.47,31.79-18.33C407.26,463.06,406.07,469.28,406.07,475.58L406.07,475.58z M406.74,533.5L406.74,533.5
		c0.57,3.47,1.51,6.87,2.79,10.14c-3.16-3.94-6.88-7.36-11.01-10.16L406.74,533.5L406.74,533.5z M446.05,574.54L446.05,574.54
		l-0.25,1.08c-11.27,2.44-21.46,8.72-28.72,17.76c2.27-5.81,3.46-12.03,3.46-18.33c0-6.3-1.19-12.52-3.46-18.33
		C424.4,565.83,434.68,572.13,446.05,574.54L446.05,574.54z M457.39,575.64L457.39,575.64c6.09,0.13,12.02,1.39,17.52,3.64
		l-6.9,8.67C463.86,584.5,460.26,580.36,457.39,575.64L457.39,575.64z M478.79,581.06L478.79,581.06
		c7.99,4.1,14.85,10.37,19.64,18.26c-9.83-0.2-19.25-3.38-27.12-8.86L478.79,581.06L478.79,581.06z M520.01,581.11L520.01,581.11
		l7.49,9.41c-7.85,5.45-17.24,8.6-27.03,8.81C505.23,591.46,512.05,585.21,520.01,581.11L520.01,581.11z M523.88,579.31
		L523.88,579.31c5.53-2.27,11.5-3.55,17.62-3.68c-2.88,4.75-6.52,8.92-10.7,12.37L523.88,579.31L523.88,579.31z M552.69,574.57
		L552.69,574.57c11.43-2.38,21.77-8.7,29.11-17.85c-2.27,5.81-3.46,12.03-3.46,18.33c0,6.3,1.19,12.52,3.46,18.33
		c-7.29-9.09-17.54-15.38-28.88-17.8L552.69,574.57L552.69,574.57z M592.07,533.98L592.07,533.98l7.55,0.02
		c-3.82,2.7-7.28,5.94-10.25,9.64C590.59,540.52,591.49,537.29,592.07,533.98L592.07,533.98z M592.82,475.58L592.82,475.58
		c0-6.3-1.19-12.52-3.46-18.33c7.91,9.86,19.3,16.43,31.79,18.33c-12.49,1.9-23.88,8.47-31.79,18.33
		C591.64,488.1,592.82,481.88,592.82,475.58L592.82,475.58z M584.68,447.84L584.68,447.84l3.96-4.98c-0.85,2.3-1.87,4.54-3.06,6.69
		C585.28,448.99,584.97,448.42,584.68,447.84L584.68,447.84z M579.67,421.81L579.67,421.81c0.57-6.9,2.58-13.62,5.92-19.67
		c2.47,4.49,4.22,9.34,5.19,14.36L579.67,421.81L579.67,421.81z M543.53,425.26L543.53,425.26c8.71-14.36,24.27-23.34,41.04-23.69
		C575.86,415.93,560.3,424.91,543.53,425.26L543.53,425.26z M535.28,400.98L535.28,400.98c0,6.3,1.19,12.52,3.46,18.33
		c-6.59-8.22-15.59-14.15-25.64-17l-0.58-2.5c10.27-2.78,19.5-8.79,26.21-17.16C536.47,388.46,535.28,394.68,535.28,400.98
		L535.28,400.98z M542.52,377.28L542.52,377.28c3.98,7.23,6.09,15.4,6.09,23.71c0,8.31-2.11,16.48-6.09,23.7
		c-3.98-7.23-6.09-15.4-6.09-23.7C536.43,392.67,538.53,384.5,542.52,377.28L542.52,377.28z M508.6,401.26L508.6,401.26
		c-0.55-0.1-1.1-0.2-1.66-0.28c0.51-0.08,1.02-0.16,1.53-0.26L508.6,401.26L508.6,401.26z M500.46,400.39L500.46,400.39
		c1.77-2.91,3.81-5.6,6.09-8.04l1.67,7.26C505.68,400.07,503.08,400.34,500.46,400.39L500.46,400.39z M491.95,400.98L491.95,400.98
		c-0.61,0.09-1.21,0.19-1.81,0.31l0.14-0.59C490.83,400.8,491.39,400.9,491.95,400.98L491.95,400.98z M490.54,399.58L490.54,399.58
		l1.69-7.36c2.33,2.47,4.41,5.21,6.21,8.17C495.76,400.33,493.12,400.06,490.54,399.58L490.54,399.58z M485.64,402.36L485.64,402.36
		c-9.98,2.87-18.93,8.78-25.48,16.95c2.27-5.81,3.46-12.03,3.46-18.33c0-6.3-1.19-12.52-3.46-18.33
		c6.68,8.34,15.86,14.32,26.08,17.12L485.64,402.36L485.64,402.36z M462.47,400.98L462.47,400.98c0,8.31-2.11,16.48-6.09,23.7
		c-3.98-7.23-6.09-15.4-6.09-23.7c0-8.31,2.11-16.48,6.09-23.71C460.36,384.5,462.47,392.67,462.47,400.98L462.47,400.98z
		 M414.32,401.57L414.32,401.57c16.77,0.35,32.33,9.33,41.04,23.69C438.59,424.91,423.03,415.93,414.32,401.57L414.32,401.57z
		 M419.24,422.02L419.24,422.02l-11.15-5.37c0.96-5.07,2.72-9.98,5.22-14.51C416.68,408.25,418.7,415.04,419.24,422.02
		L419.24,422.02z M414.09,448.07L414.09,448.07c-0.25,0.5-0.51,0.99-0.78,1.48c-1.06-1.92-1.99-3.91-2.78-5.96L414.09,448.07
		L414.09,448.07z M371.25,474.99L371.25,474.99c8.71-14.36,24.27-23.34,41.04-23.69C403.58,465.66,388.02,474.64,371.25,474.99
		L371.25,474.99z M412.29,499.86L412.29,499.86c-16.77-0.35-32.33-9.33-41.04-23.69C388.02,476.52,403.58,485.5,412.29,499.86
		L412.29,499.86z M411.61,502.13L411.61,502.13l-36.93,17.65c9.04-11.45,22.86-18.44,37.61-18.74
		C412.07,501.41,411.84,501.77,411.61,502.13L411.61,502.13z M371.3,525.99L371.3,525.99l0.18-0.09c5.79,0.15,11.43,1.32,16.69,3.39
		l-14.69-0.04C372.71,528.21,371.99,527.12,371.3,525.99L371.3,525.99z M396.42,533.47L396.42,533.47
		c6.38,4.02,11.85,9.49,15.87,16.12c-13.61-0.28-26.43-6.25-35.43-16.17L396.42,533.47L396.42,533.47z M419.4,575.05L419.4,575.05
		c0,8.31-2.11,16.48-6.09,23.7c-3.98-7.23-6.09-15.4-6.09-23.7c0-8.31,2.11-16.48,6.09-23.71
		C417.29,558.57,419.4,566.74,419.4,575.05L419.4,575.05z M445.52,576.85L445.52,576.85l-2.94,12.79
		c-8.09,5.99-17.94,9.47-28.26,9.68C421.29,587.83,432.66,579.78,445.52,576.85L445.52,576.85z M449.96,576.05L449.96,576.05
		c1.78-0.24,3.58-0.37,5.4-0.41c-2.12,3.49-4.64,6.67-7.48,9.47L449.96,576.05L449.96,576.05z M462.43,601.64L462.43,601.64
		c-0.27,7.71-2.35,15.26-6.06,21.98c-1.65-2.98-2.97-6.13-3.96-9.38L462.43,601.64L462.43,601.64z M463.61,600.16L463.61,600.16
		l6.99-8.8c6.32,4.42,13.63,7.38,21.35,8.55c-12.49,1.9-23.88,8.47-31.79,18.33C462.4,612.51,463.58,606.37,463.61,600.16
		L463.61,600.16z M528.21,591.42L528.21,591.42l7.08,8.89c0.05,6.16,1.23,12.25,3.45,17.94c-7.91-9.86-19.3-16.43-31.79-18.33
		C514.63,598.75,521.91,595.81,528.21,591.42L528.21,591.42z M536.47,601.79L536.47,601.79l9.98,12.54
		c-0.98,3.22-2.3,6.33-3.93,9.29C538.83,616.94,536.76,609.45,536.47,601.79L536.47,601.79z M548.77,576.03L548.77,576.03l2.04,8.88
		c-2.77-2.76-5.22-5.87-7.28-9.27C545.29,575.67,547.04,575.8,548.77,576.03L548.77,576.03z M553.21,576.81L553.21,576.81
		c12.93,2.9,24.36,10.97,31.36,22.51c-10.39-0.22-20.32-3.75-28.45-9.82L553.21,576.81L553.21,576.81z M579.5,575.05L579.5,575.05
		c0-8.31,2.11-16.48,6.09-23.71c3.98,7.23,6.09,15.4,6.09,23.71c0,8.31-2.11,16.48-6.09,23.7
		C581.6,591.53,579.5,583.35,579.5,575.05L579.5,575.05z M601.64,534.01L601.64,534.01l19.81,0.05
		c-8.97,9.53-21.53,15.25-34.85,15.53C590.44,543.26,595.62,537.97,601.64,534.01L601.64,534.01z M609.32,529.88L609.32,529.88
		c5.17-2.22,10.73-3.56,16.46-3.9l1.41,0.68c-0.71,1.12-1.46,2.21-2.26,3.27L609.32,529.88L609.32,529.88z M587.98,503.19
		L587.98,503.19c-0.48-0.7-0.94-1.42-1.38-2.15c15.31,0.32,29.62,7.83,38.62,20.07L587.98,503.19L587.98,503.19z M627.64,476.17
		L627.64,476.17c-8.71,14.36-24.27,23.34-41.04,23.69C595.31,485.5,610.87,476.52,627.64,476.17L627.64,476.17z M586.6,451.3
		L586.6,451.3c16.77,0.35,32.33,9.33,41.04,23.69C610.87,474.64,595.31,465.66,586.6,451.3L586.6,451.3z M627.32,426.97
		L627.32,426.97c-8.77,14.05-24.16,22.81-40.72,23.15c8.6-14.18,23.89-23.12,40.42-23.68C627.12,426.62,627.22,426.8,627.32,426.97
		L627.32,426.97z M589.37,444.18L589.37,444.18c0.5-1.29,0.96-2.6,1.35-3.93L606.02,421c4.73,2.39,9.84,4.04,15.15,4.84
		C608.67,427.74,597.28,434.31,589.37,444.18L589.37,444.18z M591.85,415.99L591.85,415.99c-0.58-2.89-1.41-5.73-2.48-8.47
		c1.93,2.41,4.06,4.62,6.37,6.61L591.85,415.99L591.85,415.99z M546.3,419.31L546.3,419.31c2.27-5.81,3.46-12.03,3.46-18.33
		c0-6.3-1.19-12.52-3.46-18.33c7.91,9.86,19.3,16.43,31.79,18.33C565.6,402.88,554.21,409.45,546.3,419.31L546.3,419.31z
		 M512.27,398.69L512.27,398.69l-2.23-9.72c8.62-7.57,19.75-12.03,31.47-12.27C534.89,387.61,524.32,395.42,512.27,398.69
		L512.27,398.69z M506.24,391.01L506.24,391.01c-1.05,1.09-2.06,2.24-3.02,3.43c0.9-2.3,1.63-4.66,2.18-7.07L506.24,391.01
		L506.24,391.01z M499.45,399.82L499.45,399.82c-2.66-4.83-4.49-10.08-5.4-15.51l5.33-23.18l5.41,23.53
		C503.85,389.97,502.05,395.09,499.45,399.82L499.45,399.82z M493.42,387.05L493.42,387.05c0.56,2.52,1.31,4.99,2.25,7.39
		c-0.99-1.24-2.04-2.42-3.13-3.55L493.42,387.05L493.42,387.05z M486.49,398.65L486.49,398.65c-11.99-3.3-22.51-11.09-29.1-21.95
		c11.67,0.24,22.75,4.66,31.35,12.16L486.49,398.65L486.49,398.65z M449.14,400.98L449.14,400.98c0,6.3,1.19,12.52,3.46,18.33
		c-7.91-9.86-19.3-16.43-31.79-18.33c12.49-1.9,23.88-8.47,31.79-18.33C450.33,388.46,449.14,394.68,449.14,400.98L449.14,400.98z
		 M407.02,416.13L407.02,416.13l-3.97-1.91c2.35-2.02,4.52-4.26,6.48-6.7C408.44,410.31,407.59,413.19,407.02,416.13L407.02,416.13z
		 M408.37,440.88L408.37,440.88c0.35,1.11,0.73,2.21,1.16,3.3c-7.91-9.86-19.3-16.43-31.79-18.33c5.22-0.79,10.25-2.4,14.91-4.72
		L408.37,440.88L408.37,440.88z M405.81,450.71L405.81,450.71c-12.49,1.9-23.88,8.47-31.79,18.33c2.27-5.81,3.45-12.03,3.45-18.33
		s-1.19-12.52-3.45-18.33C381.93,442.25,393.32,448.82,405.81,450.71L405.81,450.71z M405.81,500.45L405.81,500.45
		c-12.49,1.9-23.88,8.47-31.79,18.33c2.27-5.81,3.45-12.03,3.45-18.33c0-6.3-1.19-12.52-3.45-18.33
		C381.93,491.98,393.32,498.55,405.81,500.45L405.81,500.45z M375.32,533.42L375.32,533.42c7.83,8.99,18.67,14.97,30.49,16.76
		c-12.49,1.9-23.88,8.47-31.79,18.33c2.27-5.81,3.45-12.03,3.45-18.33c0-5.74-0.98-11.41-2.87-16.76L375.32,533.42L375.32,533.42z
		 M409.53,556.72L409.53,556.72c-2.27,5.81-3.46,12.03-3.46,18.33c0,6.3,1.19,12.52,3.46,18.33c-7.91-9.86-19.3-16.43-31.79-18.33
		C390.22,573.15,401.62,566.58,409.53,556.72L409.53,556.72z M442.19,591.34L442.19,591.34l-3.44,14.95
		c-5.49-3.22-11.58-5.4-17.95-6.37C428.54,598.74,435.86,595.77,442.19,591.34L442.19,591.34z M447.41,587.14L447.41,587.14
		c1.86-1.71,3.59-3.56,5.18-5.55c-2.27,5.81-3.46,12.03-3.46,18.33c0,3.51,0.37,7,1.09,10.41l-2.28,2.87
		c-1.73-1.63-3.56-3.14-5.49-4.51L447.41,587.14L447.41,587.14z M451.56,615.32L451.56,615.32c0.32,0.99,0.66,1.96,1.04,2.92
		c-0.56-0.7-1.14-1.39-1.73-2.05L451.56,615.32L451.56,615.32z M498.43,600.5L498.43,600.5c-8.71,14.36-24.27,23.34-41.04,23.69
		C466.1,609.83,481.66,600.85,498.43,600.5L498.43,600.5z M541.5,624.19L541.5,624.19c-16.77-0.35-32.33-9.33-41.04-23.69
		C517.23,600.85,532.79,609.84,541.5,624.19L541.5,624.19z M547.31,615.41L547.31,615.41l0.67,0.84c-0.58,0.65-1.14,1.31-1.68,1.99
		C546.66,617.31,547,616.36,547.31,615.41L547.31,615.41z M548.64,610.42L548.64,610.42c0.73-3.44,1.11-6.96,1.11-10.5
		c0-6.3-1.19-12.52-3.46-18.33c1.54,1.92,3.2,3.71,4.99,5.37l5.01,21.82c-1.9,1.36-3.7,2.85-5.41,4.47L548.64,610.42L548.64,610.42z
		 M556.52,591.21L556.52,591.21c6.37,4.51,13.76,7.52,21.57,8.71c-6.43,0.98-12.56,3.19-18.09,6.45L556.52,591.21L556.52,591.21z
		 M592.82,575.05L592.82,575.05c0-6.3-1.19-12.52-3.46-18.33c7.91,9.86,19.3,16.43,31.79,18.33c-12.49,1.9-23.88,8.47-31.79,18.33
		C591.64,587.57,592.82,581.34,592.82,575.05L592.82,575.05z M593.08,550.18L593.08,550.18c11.53-1.75,22.13-7.49,29.91-16.12
		l1.07,0c-1.74,5.16-2.64,10.61-2.64,16.11c0,6.3,1.19,12.52,3.45,18.33C616.97,558.65,605.57,552.08,593.08,550.18L593.08,550.18z
		 M593.08,500.45L593.08,500.45c12.49-1.9,23.88-8.47,31.79-18.33c-2.27,5.81-3.45,12.03-3.45,18.33c0,6.3,1.19,12.52,3.45,18.33
		C616.97,508.91,605.57,502.34,593.08,500.45L593.08,500.45z M593.08,450.71L593.08,450.71c12.49-1.9,23.88-8.47,31.79-18.33
		c-2.27,5.81-3.45,12.03-3.45,18.33s1.19,12.52,3.45,18.33C616.97,459.18,605.57,452.61,593.08,450.71L593.08,450.71z
		 M596.88,413.59L596.88,413.59c-4-3.39-7.49-7.43-10.28-12.02c8.04,0.17,15.8,2.32,22.66,6.1L596.88,413.59L596.88,413.59z
		 M543.53,376.7L543.53,376.7c16.77,0.35,32.33,9.33,41.04,23.69C567.8,400.04,552.24,391.06,543.53,376.7L543.53,376.7z
		 M509.74,387.71L509.74,387.71l-3.1-13.48c-0.24-6.36-1.68-12.62-4.23-18.41l-0.68-2.94c3.3,0.05,6.62,0.23,9.94,0.51
		c12.31,3.18,23.12,11.07,29.85,22.17C529.72,375.79,518.5,380.2,509.74,387.71L509.74,387.71z M497.01,352.88L497.01,352.88
		l-0.84,3.64c-2.26,5.35-3.58,11.08-3.89,16.92l-3.26,14.17c-8.74-7.44-19.91-11.82-31.66-12.05c6.72-11.09,17.52-18.98,29.82-22.17
		C490.44,353.12,493.72,352.94,497.01,352.88L497.01,352.88z M414.32,400.39L414.32,400.39c8.71-14.36,24.27-23.34,41.04-23.69
		C446.65,391.06,431.09,400.04,414.32,400.39L414.32,400.39z M401.91,413.68L401.91,413.68l-12.38-5.96
		c6.89-3.81,14.69-5.98,22.77-6.15C409.48,406.2,405.96,410.27,401.91,413.68L401.91,413.68z M370.24,476.74L370.24,476.74
		c3.98,7.23,6.09,15.4,6.09,23.71c0,7.19-1.58,14.28-4.58,20.74l-2.45,1.17c-3.37-6.77-5.14-14.28-5.14-21.91
		C364.15,492.14,366.25,483.97,370.24,476.74L370.24,476.74z M370.21,526.51L370.21,526.51l0.04-0.02c0.5,0.91,0.97,1.83,1.41,2.76
		l-2.84-0.01C369.25,528.33,369.72,527.41,370.21,526.51L370.21,526.51z M367.55,529.25L367.55,529.25l-3.04-0.01l3.97-1.9
		C368.16,527.97,367.85,528.61,367.55,529.25L367.55,529.25z M438.48,607.46L438.48,607.46l-2.79,12.15
		c-8.73-4.06-16.24-10.65-21.37-19.11C422.95,600.68,431.26,603.15,438.48,607.46L438.48,607.46z M450.14,617.1L450.14,617.1
		c1.94,2.18,3.68,4.55,5.22,7.09c-3.36-0.07-6.67-0.48-9.89-1.22L450.14,617.1L450.14,617.1z M495.67,606.45L495.67,606.45
		c-2.27,5.81-3.46,12.03-3.46,18.33c0,8.11,1.96,16.1,5.69,23.24c-3.54-0.04-7.09-0.21-10.65-0.51
		c-12.32-3.18-23.15-11.07-29.87-22.18C472.35,625.04,486.4,618,495.67,606.45L495.67,606.45z M500.99,648.03L500.99,648.03
		c3.72-7.14,5.69-15.13,5.69-23.24c0-6.3-1.19-12.52-3.45-18.33c9.27,11.55,23.31,18.59,38.3,18.89
		c-6.73,11.11-17.56,19-29.88,22.18C508.12,647.81,504.57,647.99,500.99,648.03L500.99,648.03z M548.7,617.16L548.7,617.16
		l4.64,5.83c-3.19,0.73-6.48,1.14-9.81,1.2C545.06,621.68,546.79,619.32,548.7,617.16L548.7,617.16z M560.27,607.54L560.27,607.54
		c7.25-4.36,15.61-6.86,24.3-7.04c-5.16,8.5-12.72,15.12-21.51,19.18L560.27,607.54L560.27,607.54z M626.92,529.92L626.92,529.92
		c0.42-0.93,0.87-1.84,1.35-2.75l1.02,0.49c0.38,0.75,0.75,1.5,1.1,2.26L626.92,529.92L626.92,529.92z M630.98,528.48L630.98,528.48
		l3.04,1.46l-2.38-0.01C631.43,529.45,631.21,528.96,630.98,528.48L630.98,528.48z M627.67,522.29L627.67,522.29
		c-3.35-6.75-5.11-14.24-5.11-21.84c0-8.31,2.11-16.48,6.09-23.71c3.98,7.23,6.09,15.4,6.09,23.71c0,7.88-1.9,15.65-5.5,22.6
		L627.67,522.29L627.67,522.29z M617.15,411.57L617.15,411.57c-0.74-0.59-1.49-1.17-2.26-1.72l0.48-0.61
		C615.97,410.01,616.56,410.79,617.15,411.57L617.15,411.57z M612.75,406L612.75,406l-2.22,1.06c-7.39-4.23-15.85-6.59-24.61-6.65
		c-8.96-15.25-25.4-24.75-43.07-24.87c-5.89-10.03-15.02-17.58-25.61-21.6c4.99,0.61,10,1.48,15.01,2.62
		C565.03,364.04,592.76,381.96,612.75,406L612.75,406z M481.62,353.96L481.62,353.96c-10.58,4.02-19.69,11.56-25.58,21.59
		c-17.67,0.12-34.11,9.62-43.07,24.87c-8.79,0.06-17.29,2.44-24.71,6.7l-2.22-1.07C409.96,377.4,444.21,358.55,481.62,353.96
		L481.62,353.96z M383.79,410.01L383.79,410.01c-0.76,0.55-1.51,1.12-2.23,1.71c0.58-0.77,1.16-1.54,1.76-2.3L383.79,410.01
		L383.79,410.01z M355.57,467.64L355.57,467.64c1.98-8.69,4.71-17.01,8.07-24.94c-0.42,2.64-0.64,5.32-0.64,8.02
		c0,8.73,2.27,17.32,6.57,24.87c-4.3,7.54-6.57,16.13-6.57,24.87c0,7.8,1.81,15.48,5.26,22.4l-13.6,6.5
		C350.63,509.21,350.86,488.26,355.57,467.64L355.57,467.64z M365.88,533.39L365.88,533.39c-1.89,5.36-2.88,11.04-2.88,16.79
		c0,2.72,0.22,5.43,0.66,8.1c-3.46-8.09-6.18-16.42-8.13-24.91L365.88,533.39L365.88,533.39z M381.52,589.14L381.52,589.14
		c8.77,7.14,19.85,11.26,31.45,11.34c5.3,9.02,13.21,16.03,22.45,20.27l-2.63,11.42C412.7,622.05,395.21,607.41,381.52,589.14
		L381.52,589.14z M436.67,634.05L436.67,634.05l8.02-10.08c3.68,0.89,7.49,1.36,11.35,1.39c5.89,10.03,15.02,17.57,25.61,21.6
		c-4.99-0.61-10-1.48-15.01-2.62C456.18,641.94,446.16,638.48,436.67,634.05L436.67,634.05z M517.26,646.94L517.26,646.94
		c10.58-4.02,19.71-11.56,25.6-21.59c3.84-0.03,7.62-0.49,11.28-1.37l7.97,10.01C548.06,640.59,532.94,645.02,517.26,646.94
		L517.26,646.94z M565.92,632.12L565.92,632.12l-2.6-11.3c9.3-4.24,17.27-11.27,22.6-20.34c11.6-0.08,22.67-4.19,31.44-11.33
		C603.66,607.31,585.98,621.97,565.92,632.12L565.92,632.12z M635.25,558.21L635.25,558.21c0.43-2.64,0.65-5.33,0.65-8.03
		c0-5.49-0.9-10.93-2.64-16.09l9.86,0.03C641.15,542.49,638.51,550.54,635.25,558.21L635.25,558.21z M643.99,530.14L643.99,530.14
		l-13.71-6.6c3.67-7.1,5.61-15.04,5.61-23.09c0-8.73-2.27-17.32-6.57-24.87c4.3-7.54,6.57-16.13,6.57-24.87
		c0-2.61-0.21-5.21-0.61-7.77C646.61,469.6,650.23,499.8,643.99,530.14L643.99,530.14z"/>
</g>
</svg>
